<svg fill="none" height="138" width="272" xmlns="http://www.w3.org/2000/svg"><path d="M100.429 60.846h50.557" stroke="#fff" stroke-miterlimit="10" stroke-width="2"/><path d="M36.147 72.44a39.476 39.476 0 0 1 26.122 9.826 35.648 35.648 0 0 0 0-48.807 39.679 39.679 0 0 1-52.277 0 35.648 35.648 0 0 0 0 48.722 39.442 39.442 0 0 1 26.155-9.74z" fill="#a6afb7"/><path d="M88.542 93.602c19.729 0 35.722-16.001 35.722-35.74 0-19.738-15.993-35.74-35.722-35.74-19.728 0-35.721 16.002-35.721 35.74 0 19.739 15.993 35.74 35.721 35.74z" fill="#ffdb00"/><path d="M114.714 33.544a35.769 35.769 0 0 0 0 48.62 35.645 35.645 0 0 0 9.574-24.31 35.645 35.645 0 0 0-9.574-24.31z" fill="#ea3f3f"/><path d="M62.353 33.544a35.648 35.648 0 0 0 0 48.62 35.648 35.648 0 0 0 0-48.62z" fill="#fff"/><path d="M9.992 33.544a35.648 35.648 0 0 0 0 48.62 35.767 35.767 0 0 0 0-48.62zM62.353 66.178c4.59 0 8.312-3.723 8.312-8.316a8.313 8.313 0 0 0-8.312-8.315 8.313 8.313 0 0 0-8.311 8.315c0 4.593 3.721 8.316 8.311 8.316z" fill="#0090ff"/><path d="M62.353 62.835a4.971 4.971 0 0 0 4.97-4.973 4.971 4.971 0 0 0-4.97-4.972 4.971 4.971 0 0 0-4.97 4.972 4.971 4.971 0 0 0 4.97 4.973z" fill="#111"/><path d="M150.987 45.376v37.269h55.323V45.377c-.183-7.224-3.179-14.09-8.35-19.134a27.682 27.682 0 0 0-38.658 0 27.708 27.708 0 0 0-8.35 19.133z" fill="#0090ff"/><path d="M178.658 17.674c4.878 0 8.832-3.956 8.832-8.837 0-4.88-3.954-8.837-8.832-8.837-4.879 0-8.833 3.956-8.833 8.837 0 4.88 3.954 8.837 8.833 8.837z" fill="#ffdb00"/><path d="M209.474 82.538h-58.487v55.316h58.487z" fill="#a6afb7"/><path d="M243.595 82.52h-37.32v55.351h37.32c7.339 0 14.377-2.916 19.566-8.108a27.693 27.693 0 0 0 0-39.152 27.662 27.662 0 0 0-19.566-8.109z" fill="#ea3f3f"/><path d="M163.018 109.334a.975.975 0 0 0 .196.178l6.202 6.223 9.508-9.513-6.202-6.205-.196-.214a6.732 6.732 0 0 0-9.318.208 6.743 6.743 0 0 0-.19 9.323z" fill="#ffdb00"/><path d="m179.46 105.675-10.053 10.058 9.512 9.518 10.053-10.059z" fill="#ea3f3f"/><path d="m185.322 99.785-.196.196-6.202 6.223 9.508 9.513 6.202-6.223.196-.178a6.743 6.743 0 0 0-.19-9.323 6.733 6.733 0 0 0-9.318-.207z" fill="#0090ff"/><path d="m244.732 107.947-1.031-2.578-5.242 2.098 2.221-5.192-2.541-1.103-2.239 5.192-2.08-5.245-2.577 1.031 2.08 5.246-5.19-2.223-1.084 2.543 5.19 2.24-5.243 2.08 1.031 2.579 5.242-2.081-2.239 5.192 2.559 1.085 2.222-5.192 2.097 5.245 2.577-1.013-2.097-5.264 5.189 2.241 1.102-2.561-5.19-2.222zM201.867 60.934s-10.663 9.104-23.689 9.104c-13.027 0-23.708-9.104-23.708-9.104s10.663-9.086 23.708-9.086c13.044 0 23.689 9.086 23.689 9.086z" fill="#fff"/><path d="M178.249 69.451c4.701 0 8.512-3.813 8.512-8.516s-3.811-8.517-8.512-8.517c-4.702 0-8.513 3.813-8.513 8.517s3.811 8.516 8.513 8.516z" fill="#0090ff"/><path d="M178.249 66.02a5.084 5.084 0 0 0 5.083-5.086c0-2.808-2.276-5.085-5.083-5.085s-5.083 2.277-5.083 5.085a5.084 5.084 0 0 0 5.083 5.086z" fill="#111"/></svg>