<svg fill="none" height="263" viewBox="0 0 582 263" width="582" xmlns="http://www.w3.org/2000/svg" xmlns:xlink="http://www.w3.org/1999/xlink"><clipPath id="a"><path d="m66 74h225v128h-225z"/></clipPath><g clip-path="url(#a)"><path d="m242.104 100.161h-54.41c-3.018 0-5.913 1.202-8.048 3.342-2.134 2.139-3.334 5.041-3.334 8.067v49.466c0 2.963-1.174 5.805-3.264 7.901-2.091 2.095-4.926 3.273-7.882 3.273h-17.45" stroke="#fff" stroke-miterlimit="10" stroke-width="3"/><path d="m175.357 126.726h-27.406" stroke="#fff" stroke-miterlimit="10" stroke-width="3"/><path d="m107.403 202c22.866 0 41.403-7.56 41.403-16.886s-18.537-16.887-41.403-16.887c-22.8663 0-41.403 7.561-41.403 16.887s18.5367 16.886 41.403 16.886z" fill="#0090ff"/><path d="m148.755 162.834h-82.6879v22.28h82.6879z" fill="#0090ff"/><path d="m107.403 181.064c22.866 0 41.403-7.56 41.403-16.886s-18.537-16.886-41.403-16.886c-22.8663 0-41.403 7.56-41.403 16.886s18.5367 16.886 41.403 16.886z" fill="#ea3f3f"/><path d="m107.403 154.87c22.866 0 41.403-7.561 41.403-16.887s-18.537-16.886-41.403-16.886c-22.8663 0-41.403 7.56-41.403 16.886s18.5367 16.887 41.403 16.887z" fill="#ffdb00"/><path d="m148.755 115.703h-82.6879v22.28h82.6879z" fill="#ffdb00"/><path d="m107.403 133.934c22.866 0 41.403-7.56 41.403-16.886s-18.537-16.887-41.403-16.887c-22.8663 0-41.403 7.561-41.403 16.887s18.5367 16.886 41.403 16.886z" fill="#f9cfdd"/><path d="m115.784 164.077-.972-2.436-4.962 1.983 2.112-4.907-2.414-1.041-2.095 4.923-1.978-4.974-2.43.975 1.978 4.956-4.895-2.1-1.0225 2.403 4.8775 2.117-4.9445 1.983.9725 2.436 4.945-1.983-2.096 4.906 2.397 1.042 2.112-4.923 1.978 4.974 2.431-.975-1.978-4.957 4.894 2.101 1.023-2.403-4.895-2.117z" fill="#f9cfdd"/><path d="m248.223 74h-1.056-34.078v52.306h34.078 1.056c6.809-.173 13.282-3.006 18.037-7.895s7.417-11.447 7.417-18.275-2.662-13.3858-7.417-18.2746c-4.755-4.8889-11.228-7.722-18.037-7.895z" fill="#ea3f3f"/><path d="m282.669 108.512c4.601 0 8.331-3.739 8.331-8.351 0-4.6118-3.73-8.3506-8.331-8.3506s-8.331 3.7388-8.331 8.3506c0 4.612 3.73 8.351 8.331 8.351z" fill="#ffdb00"/><path d="m254.693 93.2723c-.905-3.3605-3.956-6.0321-9.052-7.8971l-2.38-.8737v19.2895c-2.246.16-4.399.965-6.202 2.318-3.721 2.621-5.565 6.419-4.124 8.401 1.442 1.983 5.616 1.58 9.32-1.041 3.101-2.201 4.895-5.209 4.56-7.326v-16.3824c1 .3914 1.911.9839 2.674 1.7409.764.7571 1.366 1.6627 1.768 2.6613.16.9218.123 1.8671-.108 2.7737-.232.9065-.652 1.7536-1.233 2.4854l2.749 2.2851c.932-1.172 1.596-2.5348 1.946-3.992.351-1.4572.379-2.9736.082-4.4427z" fill="#f9cfdd"/><path d="m131.976 117.048c-6.68-6.211-15.454-9.662-24.565-9.662-9.1107 0-17.8851 3.451-24.5649 9.662 6.6743 6.221 15.4508 9.68 24.5649 9.68 9.115 0 17.891-3.459 24.565-9.68z" fill="#fff"/><path d="m107.403 125.482c4.647 0 8.414-3.776 8.414-8.434 0-4.659-3.767-8.435-8.414-8.435s-8.4148 3.776-8.4148 8.435c0 4.658 3.7678 8.434 8.4148 8.434z" fill="#0090ff"/><path d="m107.403 122.088c2.777 0 5.029-2.257 5.029-5.04 0-2.784-2.252-5.041-5.029-5.041s-5.029 2.257-5.029 5.041c0 2.783 2.252 5.04 5.029 5.04z" fill="#1d1d1b"/></g></svg>