<svg fill="none" height="279" width="427" xmlns="http://www.w3.org/2000/svg"><g stroke-miterlimit="10" stroke-width="3"><path d="m158.63 188.638h43.47c7.819 0 14.151 7.351 14.151 16.404v32.806c0 9.073-6.332 16.403-14.151 16.403h-40.601m201.157-159.614h14.623c2.89 0 5.66 1.148 7.703 3.192a10.9 10.9 0 0 1 3.19 7.706v9.801a10.683 10.683 0 0 0 10.668 10.672h16.703" stroke="#fff"/><path d="m420.401 131.083a5.074 5.074 0 0 0 5.072-5.075 5.073 5.073 0 1 0 -10.145 0 5.074 5.074 0 0 0 5.073 5.075zm-143.126-68.033h14.633a10.892 10.892 0 0 1 10.893 10.898v9.791a10.678 10.678 0 0 0 6.585 9.86 10.67 10.67 0 0 0 4.083.812h16.703" stroke="#fff"/><path d="m335.019 99.486a5.074 5.074 0 0 0 5.073-5.075 5.074 5.074 0 1 0 -10.145 0 5.073 5.073 0 0 0 5.072 5.075z" stroke="#1d1d1b"/><path d="m106.799 44.822h51.472a10.771 10.771 0 0 1 10.812 10.775v46.708a10.554 10.554 0 0 0 3.088 7.46 10.538 10.538 0 0 0 7.456 3.09h16.498" stroke="#fff"/><path d="m200.583 117.868a5.011 5.011 0 0 0 5.011-5.013 5.011 5.011 0 1 0 -10.022 0 5.012 5.012 0 0 0 5.011 5.013zm0-17.757a5.011 5.011 0 0 0 5.011-5.013 5.012 5.012 0 1 0 -10.022 0 5.012 5.012 0 0 0 5.011 5.013zm-30.629-5.484h25.915m4.714-13.359a5.012 5.012 0 0 0 5.011-5.013 5.012 5.012 0 1 0 -10.022 0 5.012 5.012 0 0 0 5.011 5.013zm-30.629-5.474h25.915m4.714-12.559a5.012 5.012 0 0 0 5.011-5.014 5.012 5.012 0 1 0 -10.022 0 5.012 5.012 0 0 0 5.011 5.014zm-30.629-5.475h25.915m-80.022-12.938h14.459a10.767 10.767 0 0 0 9.951-6.651c.541-1.308.819-2.709.819-4.124v-9.677a10.545 10.545 0 0 1 3.103-7.474 10.553 10.553 0 0 1 7.483-3.075h16.509" stroke="#fff"/><path d="m172.925 18.833a5.012 5.012 0 0 0 5.011-5.013 5.012 5.012 0 1 0 -10.022 0 5.012 5.012 0 0 0 5.011 5.013zm130.799 202.612h14.459a10.775 10.775 0 0 0 7.615-3.156 10.783 10.783 0 0 0 3.155-7.619v-9.678a10.555 10.555 0 0 1 10.585-10.55h16.509m4.755 5.014a5.013 5.013 0 0 0 5.011-5.014 5.012 5.012 0 1 0 -10.022 0 5.012 5.012 0 0 0 5.011 5.014z" stroke="#fff"/></g><path d="m211.476 37.666c15.779 0 28.57-5.205 28.57-11.626 0-6.42-12.791-11.626-28.57-11.626s-28.57 5.205-28.57 11.626c0 6.42 12.791 11.626 28.57 11.626z" fill="#f9cfdd"/><path d="m240.005 10.693h-57.047v15.337h57.047z" fill="#f9cfdd"/><path d="m211.476 23.252c15.779 0 28.57-5.205 28.57-11.626 0-6.42-12.791-11.626-28.57-11.626s-28.57 5.205-28.57 11.626c0 6.42 12.791 11.626 28.57 11.626z" fill="#ea3f3f"/><path d="m226.53 11.626s-6.733 5.803-15.054 5.803-15.053-5.783-15.053-5.783 6.742-5.782 15.053-5.782 15.054 5.762 15.054 5.762z" fill="#fff"/><path d="m211.476 17.029a5.402 5.402 0 0 0 5.401-5.403 5.402 5.402 0 1 0 -10.801 0 5.402 5.402 0 0 0 5.4 5.403z" fill="#0090ff"/><path d="m211.476 14.855a3.229 3.229 0 1 0 -.001-6.457 3.229 3.229 0 0 0 .001 6.457z" fill="#1d1d1b"/><path d="m249.217 161.46c20.363 0 36.871-6.715 36.871-14.999 0-8.283-16.508-14.999-36.871-14.999-20.362 0-36.87 6.716-36.87 14.999 0 8.284 16.508 14.999 36.87 14.999z" fill="#ffdb00"/><path d="m286.026 126.654h-73.617v19.797h73.617z" fill="#ffdb00"/><path d="m249.217 142.853c20.363 0 36.871-6.716 36.871-14.999 0-8.284-16.508-14.999-36.871-14.999-20.362 0-36.87 6.715-36.87 14.999 0 8.283 16.508 14.999 36.87 14.999z" fill="#fff"/><path d="m249.217 124.399c20.363 0 36.871-6.715 36.871-14.999s-16.508-14.999-36.871-14.999c-20.362 0-36.87 6.715-36.87 14.999s16.508 14.999 36.87 14.999z" fill="#f9cfdd"/><path d="m286.026 89.603h-73.617v19.797h73.617z" fill="#f9cfdd"/><path d="m249.217 105.802c20.363 0 36.871-6.716 36.871-15 0-8.283-16.508-14.998-36.871-14.998-20.362 0-36.87 6.715-36.87 14.999 0 8.283 16.508 14.999 36.87 14.999z" fill="#ea3f3f"/><path d="m249.217 87.532c20.363 0 36.871-6.715 36.871-14.998 0-8.284-16.508-15-36.871-15-20.362 0-36.87 6.716-36.87 15 0 8.283 16.508 14.998 36.87 14.998z" fill="#fff"/><path d="m286.026 52.737h-73.617v19.796h73.617z" fill="#fff"/><path d="m249.217 68.935c20.363 0 36.871-6.715 36.871-14.999 0-8.283-16.508-14.998-36.871-14.998-20.362 0-36.87 6.715-36.87 14.998 0 8.284 16.508 15 36.87 15z" fill="#0090ff"/><path d="m48.603 148.286v78.141a16.347 16.347 0 0 0 10.084 15.098 16.314 16.314 0 0 0 6.25 1.244h70.852" stroke="#fff" stroke-miterlimit="10" stroke-width="3"/><path d="m48.603 170.81v78.141a16.35 16.35 0 0 0 4.785 11.556 16.337 16.337 0 0 0 11.55 4.786h70.851" stroke="#fff" stroke-miterlimit="10" stroke-width="3"/><path d="m129.118 229.585h-33.202v49.364h33.263c6.55 0 12.832-2.603 17.463-7.237a24.716 24.716 0 0 0 0-34.942 24.691 24.691 0 0 0 -17.463-7.236z" fill="#ea3f3f"/><path d="m161.745 262.187a7.893 7.893 0 0 0 7.891-7.894 7.893 7.893 0 0 0 -7.891-7.895 7.893 7.893 0 0 0 -7.89 7.895 7.893 7.893 0 0 0 7.89 7.894z" fill="#0090ff"/><path d="m14.9 127.259v33.186a16.406 16.406 0 0 0 4.82 11.566 16.392 16.392 0 0 0 11.576 4.786h76.989" stroke="#fff" stroke-miterlimit="10" stroke-width="3"/><path d="m14.9 149.783v33.186a16.405 16.405 0 0 0 4.82 11.565 16.389 16.389 0 0 0 11.576 4.787h76.989" stroke="#fff" stroke-miterlimit="10" stroke-width="3"/><path d="m53.328 152.049c29.452 0 53.327-9.717 53.327-21.704s-23.875-21.704-53.327-21.704-53.328 9.717-53.328 21.704 23.876 21.704 53.328 21.704z" fill="#ffdb00"/><path d="m106.573 101.711h-106.491v28.644h106.491z" fill="#ffdb00"/><path d="m53.328 125.147c29.452 0 53.327-9.717 53.327-21.704 0-11.986-23.875-21.703-53.327-21.703s-53.328 9.717-53.328 21.703c0 11.987 23.876 21.704 53.328 21.704z" fill="#ea3f3f"/><path d="m53.328 91.48c29.452 0 53.327-9.718 53.327-21.704 0-11.987-23.875-21.704-53.327-21.704s-53.328 9.717-53.328 21.704c0 11.986 23.876 21.703 53.328 21.703z" fill="#0090ff"/><path d="m106.573 41.131h-106.491v28.645h106.491v-28.646z" fill="#0090ff"/><path d="m53.328 64.568c29.452 0 53.327-9.717 53.327-21.704 0-11.986-23.875-21.704-53.327-21.704s-53.328 9.718-53.328 21.704c0 11.987 23.876 21.704 53.328 21.704z" fill="#f9cfdd"/><path d="m81.426 42.864s-12.573 10.796-28.14 10.796c-15.565 0-28.057-10.796-28.057-10.796s12.584-10.785 28.058-10.785c15.473 0 28.14 10.785 28.14 10.785z" fill="#fff"/><path d="m53.328 52.962c5.574 0 10.093-4.52 10.093-10.098 0-5.577-4.519-10.098-10.093-10.098-5.575 0-10.094 4.52-10.094 10.098 0 5.577 4.519 10.098 10.094 10.098z" fill="#0090ff"/><path d="m53.328 48.892a6.027 6.027 0 0 0 6.025-6.028 6.027 6.027 0 0 0 -6.025-6.028 6.027 6.027 0 0 0 -6.026 6.028 6.027 6.027 0 0 0 6.026 6.028z" fill="#1d1d1b"/><path d="m95.762 164.443a39.718 39.718 0 0 1 0 48.359c43.501 0 55.336-24.174 55.336-24.174s-13.352-24.185-55.336-24.185z" fill="#f9cfdd"/><path d="m158.159 195.712a7.083 7.083 0 0 0 7.081-7.084 7.082 7.082 0 1 0 -14.162 0 7.083 7.083 0 0 0 7.081 7.084z" fill="#ffdb00"/><path d="m316.102 68.166a44.189 44.189 0 0 1 0 53.854c48.44 0 61.598-26.922 61.598-26.922s-14.849-26.932-61.598-26.932z" fill="#ea3f3f"/><path d="m135.655 252.191-1.25-3.127-6.363 2.543 2.705-6.305-3.095-1.333-2.715 6.305-2.542-6.377-3.125 1.251 2.541 6.377-6.302-2.707-1.332 3.096 6.302 2.707-6.364 2.552 1.251 3.127 6.363-2.542-2.705 6.305 3.095 1.333 2.705-6.305 2.552 6.366 3.125-1.251-2.541-6.366 6.302 2.706 1.332-3.096-6.302-2.717z" fill="#ffdb00"/><path d="m357.676 91.93-1.25-3.137-6.374 2.543 2.705-6.305-3.094-1.333-2.706 6.315-2.541-6.377-3.136 1.251 2.542 6.377-6.303-2.706-1.332 3.096 6.313 2.706-6.374 2.543 1.25 3.127 6.374-2.543-2.705 6.305 3.094 1.333 2.706-6.305 2.541 6.377 3.125-1.251-2.541-6.377 6.302 2.707 1.332-3.096-6.302-2.707zm-293.568 11.39-1.25-3.137-6.374 2.553 2.705-6.305-3.095-1.333-2.705 6.305-2.541-6.377-3.136 1.251 2.541 6.377-6.302-2.707-1.332 3.096 6.302 2.707-6.363 2.543 1.25 3.137 6.374-2.553-2.716 6.315 3.095 1.333 2.715-6.315 2.542 6.376 3.125-1.25-2.541-6.377 6.302 2.706 1.332-3.096-6.302-2.706z" fill="#f9cfdd"/><path d="m216.251 226.468a5.011 5.011 0 0 0 5.011-5.013 5.011 5.011 0 1 0 -10.022 0 5.012 5.012 0 0 0 5.011 5.013z" fill="#1d1d1b" stroke="#fff" stroke-miterlimit="10" stroke-width="3"/><path d="m222.646 221.455h34.708" stroke="#fff" stroke-miterlimit="10" stroke-width="3"/><path d="m290.555 221.455-52.722-31.228v62.466z" fill="#0090ff"/><path d="m296.735 229.38a7.923 7.923 0 0 0 7.921-7.925 7.923 7.923 0 1 0 -15.843 0 7.924 7.924 0 0 0 7.922 7.925z" fill="#ffdb00"/></svg>