<svg fill="none" height="169" width="1014" xmlns="http://www.w3.org/2000/svg" xmlns:xlink="http://www.w3.org/1999/xlink"><clipPath id="a"><path d="m0 0h1014v169h-1014z"/></clipPath><g clip-path="url(#a)"><path d="m962.985 169.022c27.547 0 49.875-9.112 49.875-20.351s-22.328-20.351-49.875-20.351-49.879 9.112-49.879 20.351 22.332 20.351 49.879 20.351z" fill="#0090ff"/><path d="m913.192 148.649h99.588v-26.847h-99.588z" fill="#0090ff"/><path d="m962.985 143.788c27.547 0 49.875-9.112 49.875-20.351s-22.328-20.35-49.875-20.35-49.879 9.111-49.879 20.35 22.332 20.351 49.879 20.351z" fill="#ea3f3f"/><path d="m926.193 36.958h-19.802a14.718 14.718 0 0 0 -10.421 4.329 14.8 14.8 0 0 0 -4.317 10.45v13.273a14.488 14.488 0 0 1 -4.176 10.306 14.385 14.385 0 0 1 -10.24 4.28h-89.116" stroke="#fff" stroke-miterlimit="10" stroke-width="2"/><path d="m964.143 119.586c27.547 0 49.877-9.111 49.877-20.35 0-11.24-22.33-20.35-49.877-20.35s-49.878 9.11-49.878 20.35c0 11.239 22.331 20.35 49.878 20.35z" fill="#ffdb00"/><path d="m914.351 99.257h99.589v-26.847h-99.589z" fill="#ffdb00"/><path d="m964.143 94.374c27.547 0 49.877-9.111 49.877-20.35 0-11.24-22.33-20.351-49.877-20.351s-49.878 9.111-49.878 20.35c0 11.24 22.331 20.351 49.878 20.351z" fill="#ea3f3f"/><path d="m964.143 70.173c27.547 0 49.877-9.111 49.877-20.35 0-11.24-22.33-20.351-49.877-20.351s-49.878 9.111-49.878 20.35c0 11.24 22.331 20.35 49.878 20.35z" fill="#a6afb7"/><path d="m914.351 49.822h99.589v-26.847h-99.589z" fill="#a6afb7"/><path d="m964.143 44.96c27.547 0 49.877-9.11 49.877-20.35s-22.33-20.35-49.877-20.35-49.878 9.11-49.878 20.35 22.331 20.35 49.878 20.35z" fill="#0090ff"/><path d="m977.036 15.682c-1.158-2.15-5.063-4.044-11.563-5.27l-3.068-.581v12.907c-2.712.08-5.393.603-7.937 1.55-4.763 1.763-7.123 4.302-5.278 5.636 1.845 1.333 7.187 1.054 11.928-.689 3.991-1.463 6.265-3.463 5.835-4.883v-11.014c3.154.817 5.106 1.828 5.686 2.947.943 1.785-1.695 3.485-1.717 3.506l3.519 1.528c.171-.108 4.14-2.668 2.595-5.637z" fill="#fff"/><path d="m807.836 64.343h-71.996a20.633 20.633 0 0 0 -14.609 6.068 20.747 20.747 0 0 0 -6.051 14.648v8.777m-51.487 0h144.143" stroke="#fff" stroke-miterlimit="10" stroke-width="2"/><path d="m799.169 47.047h-43.442v64.817h43.442c4.24 0 8.439-.838 12.356-2.465a32.284 32.284 0 0 0 10.474-7.018 32.377 32.377 0 0 0 6.999-10.504 32.446 32.446 0 0 0 -6.999-35.282 32.28 32.28 0 0 0 -10.474-7.019 32.211 32.211 0 0 0 -12.356-2.464z" fill="#0090ff"/><path d="m841.753 89.77c5.699 0 10.319-4.632 10.319-10.347s-4.62-10.347-10.319-10.347-10.318 4.632-10.318 10.347 4.619 10.347 10.318 10.347z" fill="#ffdb00"/><path d="m775.27 92.287h30.893v-24.631h-30.893z" fill="#fff"/><path d="m808.716 92.287h4.612v-5.206h-4.612zm0-9.723h4.612v-5.206h-4.612zm0-9.681h4.612v-5.206h-4.612zm-40.482 19.404h4.612v-5.206h-4.612zm0-9.723h4.612v-5.206h-4.612zm0-9.681h4.612v-5.206h-4.612z" fill="#0068ec"/><path d="m787.413 79.982 7.165 3.292v-6.604z" fill="#ea3f3f"/><path d="m389.738 129.977h-16.455a12.212 12.212 0 0 1 -8.647-3.592 12.278 12.278 0 0 1 -3.581-8.67v-11.014a12.038 12.038 0 0 0 -3.49-8.502 11.975 11.975 0 0 0 -8.459-3.545h-18.729m0 0h16.412a12.21 12.21 0 0 0 8.646-3.592 12.276 12.276 0 0 0 3.582-8.67v-10.993a12.02 12.02 0 0 1 3.506-8.488 11.955 11.955 0 0 1 8.465-3.516h18.75m101.794 0h15.017a11.744 11.744 0 0 1 8.137 3.807 11.811 11.811 0 0 1 3.083 8.455v11.014a11.55 11.55 0 0 0 3.032 8.274 11.485 11.485 0 0 0 7.974 3.709h17.162" stroke="#fff" stroke-miterlimit="10" stroke-width="2"/><path d="m545.959 94.654h-15.017a11.746 11.746 0 0 0 -8.123 3.814 11.811 11.811 0 0 0 -3.076 8.448v11.036a11.552 11.552 0 0 1 -3.016 8.28 11.486 11.486 0 0 1 -7.968 3.723h-17.162" stroke="#fff" stroke-miterlimit="10" stroke-width="2"/><path d="m440.753 158.416c29.265 0 52.989-9.68 52.989-21.62s-23.724-21.62-52.989-21.62-52.989 9.68-52.989 21.62 23.724 21.62 52.989 21.62z" fill="#ffdb00"/><path d="m493.678 108.271h-105.828v28.525h105.828z" fill="#ffdb00"/><path d="m440.753 131.633c29.265 0 52.989-9.679 52.989-21.62 0-11.94-23.724-21.62-52.989-21.62s-52.989 9.68-52.989 21.62c0 11.941 23.724 21.62 52.989 21.62z" fill="#ea3f3f"/><path d="m440.753 98.096c29.265 0 52.989-9.68 52.989-21.62s-23.724-21.62-52.989-21.62-52.989 9.68-52.989 21.62 23.724 21.62 52.989 21.62z" fill="#0090ff"/><path d="m493.678 47.95h-105.828v28.526h105.828z" fill="#0090ff"/><path d="m440.753 71.291c29.265 0 52.989-9.68 52.989-21.62s-23.724-21.62-52.989-21.62-52.989 9.68-52.989 21.62 23.724 21.62 52.989 21.62z" fill="#a6afb7"/><path d="m468.685 49.672s-12.507 10.756-27.889 10.756-27.889-10.756-27.889-10.756 12.486-10.756 27.889-10.756 27.889 10.756 27.889 10.756z" fill="#fff"/><path d="m440.753 59.718c5.533 0 10.019-4.498 10.019-10.046 0-5.549-4.486-10.046-10.019-10.046s-10.019 4.497-10.019 10.046c0 5.548 4.486 10.046 10.019 10.046z" fill="#0090ff"/><path d="m440.753 55.674c3.306 0 5.985-2.688 5.985-6.002 0-3.315-2.679-6.002-5.985-6.002s-5.985 2.687-5.985 6.002 2.679 6.002 5.985 6.002z" fill="#111"/><path d="m451.458 109.884-1.244-3.119-6.329 2.539 2.703-6.282-3.089-1.334-2.682 6.282-2.531-6.346-3.111 1.247 2.532 6.347-6.265-2.689-1.33 3.076 6.265 2.71-6.329 2.517 1.244 3.12 6.329-2.517-2.682 6.281 3.068 1.312 2.703-6.281 2.51 6.346 3.111-1.226-2.51-6.368 6.243 2.711 1.33-3.098-6.265-2.689z" fill="#fff"/><path d="m617.934 136.065c39.845 0 72.146-13.176 72.146-29.429s-32.301-29.429-72.146-29.429c-39.846 0-72.147 13.176-72.147 29.429s32.301 29.429 72.147 29.429z" fill="#ffdb00"/><path d="m690.016 67.806h-144.057v38.83h144.057z" fill="#ffdb00"/><path d="m617.934 99.58c39.845 0 72.146-13.176 72.146-29.429s-32.301-29.428-72.146-29.428c-39.846 0-72.147 13.175-72.147 29.428s32.301 29.43 72.147 29.43z" fill="#0090ff"/><path d="m639.709 58.9a19.456 19.456 0 0 0 -6.436-.968 25.68 25.68 0 0 0 -11.606 2.152 13.138 13.138 0 0 0 -4.785 3.915l-.235.28-.623.774-13-.667-.88 2.367 12.314.666-.836 1.248-12.121-.58-.858 2.344 11.606.624-.751 1.14c-.88 1.355-1.759 2.69-2.768 4.023a5.874 5.874 0 0 1 -3.218 2.022 4.274 4.274 0 0 1 -1.244.172 3.081 3.081 0 0 1 -1.094-.28l-.386-.215a8.118 8.118 0 0 0 -1.781-.731 10.033 10.033 0 0 0 -4.29 0c-1.03.28-1.695.839-1.631 1.312.065.473 1.094.904 1.995 1.14 1.914.485 3.883.716 5.857.689h2.532a20.702 20.702 0 0 0 10.104-2.883 24.936 24.936 0 0 0 3.604-3.27 19.148 19.148 0 0 0 1.673-2.151l.301-.409 12.142.624 1.931-2.345-12.636-.667.729-1.269 11.521.581 1.845-2.323-12.035-.624.665-.84c.922-1.204 1.844-2.366 2.896-3.506a6.834 6.834 0 0 1 2.36-1.226c.31-.107.636-.165.965-.172.42.024.834.119 1.223.28l.3.15c.493.256 1.001.479 1.523.667a9.096 9.096 0 0 0 5.128.15 1.31 1.31 0 0 0 1.094-1.312c.064-.408-.622-.688-1.094-.881z" fill="#fff"/><path d="m133.931 137.205h20.531a11.87 11.87 0 0 0 8.396-3.483 11.932 11.932 0 0 0 3.489-8.413v-19.684a11.467 11.467 0 0 1 3.343-8.092 11.389 11.389 0 0 1 8.07-3.352h21.753m-160.726-83.597h19.801a14.74 14.74 0 0 1 10.416 4.335 14.821 14.821 0 0 1 4.322 10.444v13.359c0 3.834 1.52 7.511 4.223 10.222a14.397 14.397 0 0 0 10.194 4.234h22.611" stroke="#fff" stroke-miterlimit="10" stroke-width="2"/><path d="m116.898 59.998c3.791 0 6.865-3.082 6.865-6.884s-3.074-6.884-6.865-6.884c-3.792 0-6.865 3.082-6.865 6.884s3.073 6.884 6.865 6.884z" stroke="#fff" stroke-miterlimit="10" stroke-width="2"/><path d="m0 54.9v45.089h66.783v-45.09a33.556 33.556 0 0 0 -10.281-22.743 33.375 33.375 0 0 0 -23.11-9.302c-8.611 0-16.89 3.332-23.11 9.302a33.557 33.557 0 0 0 -10.282 22.743z" fill="#ea3f3f"/><path d="m33.402 21.383c5.889 0 10.663-4.787 10.663-10.691 0-5.905-4.775-10.692-10.663-10.692s-10.662 4.787-10.662 10.692c0 5.904 4.774 10.691 10.662 10.691z" fill="#0090ff"/><path d="m70.602 99.86h-70.602v66.924h70.602z" fill="#a6afb7"/><path d="m111.77 99.838h-45.051v66.968h45.051a33.354 33.354 0 0 0 23.619-9.811 33.538 33.538 0 0 0 9.784-23.684 33.538 33.538 0 0 0 -9.784-23.684 33.357 33.357 0 0 0 -23.619-9.81z" fill="#ffdb00"/><path d="m89.052 144.024c5.888 0 10.662-4.787 10.662-10.691 0-5.905-4.774-10.692-10.662-10.692-5.889 0-10.663 4.787-10.663 10.692 0 5.904 4.774 10.691 10.663 10.691zm-27.032-10.648s-12.87 11.014-28.617 11.014c-15.746 0-28.597-11.014-28.597-11.014s12.872-11.014 28.597-11.014 28.619 11.014 28.619 11.014z" fill="#fff"/><path d="m33.402 143.637c5.676 0 10.276-4.613 10.276-10.304s-4.6-10.305-10.276-10.305c-5.675 0-10.276 4.614-10.276 10.305s4.601 10.304 10.276 10.304z" fill="#0090ff"/><path d="m33.402 139.485c3.389 0 6.136-2.754 6.136-6.152s-2.747-6.153-6.136-6.153c-3.388 0-6.135 2.755-6.135 6.153s2.747 6.152 6.135 6.152z" fill="#111"/><path d="m230.813 112.66a49.868 49.868 0 0 1 33.06 12.455 45.246 45.246 0 0 0 12.219-30.934 45.246 45.246 0 0 0 -12.219-30.935 50.123 50.123 0 0 1 -33.06 12.457 50.122 50.122 0 0 1 -33.059-12.457 45.374 45.374 0 0 0 -12.121 30.88 45.376 45.376 0 0 0 12.121 30.882 49.814 49.814 0 0 1 33.059-12.348z" fill="#0090ff"/><path d="m297.06 139.485c24.953 0 45.181-20.283 45.181-45.305 0-25.02-20.228-45.304-45.181-45.304-24.952 0-45.18 20.283-45.18 45.304 0 25.022 20.228 45.305 45.18 45.305z" fill="#a6afb7"/><path d="m330.184 63.353a45.242 45.242 0 0 0 -12.109 30.817 45.24 45.24 0 0 0 12.109 30.816 45.245 45.245 0 0 0 12.109-30.816 45.246 45.246 0 0 0 -12.109-30.817z" fill="#ea3f3f"/><path d="m263.873 63.353a45.242 45.242 0 0 0 -12.109 30.817 45.24 45.24 0 0 0 12.109 30.816 45.245 45.245 0 0 0 12.109-30.816 45.246 45.246 0 0 0 -12.109-30.817z" fill="#fff"/><path d="m197.711 63.353a45.398 45.398 0 0 0 -12.054 30.817 45.399 45.399 0 0 0 12.054 30.816 45.24 45.24 0 0 0 12.109-30.816 45.242 45.242 0 0 0 -12.109-30.817z" fill="#ffdb00"/><path d="m263.958 104.722c5.806 0 10.512-4.72 10.512-10.541 0-5.822-4.706-10.541-10.512-10.541-5.805 0-10.512 4.719-10.512 10.54 0 5.822 4.707 10.542 10.512 10.542z" fill="#0090ff"/><path d="m263.958 100.484c3.472 0 6.286-2.822 6.286-6.303 0-3.482-2.814-6.304-6.286-6.304-3.471 0-6.285 2.822-6.285 6.303 0 3.482 2.814 6.304 6.285 6.304z" fill="#111"/></g></svg>