<svg width="52" height="51" fill="none" xmlns="http://www.w3.org/2000/svg"><mask id="a" style="mask-type:alpha" maskUnits="userSpaceOnUse" x="0" y="0" width="52" height="51"><path fill-rule="evenodd" clip-rule="evenodd" d="M.332.5h51v50h-51V.5Z" fill="#fff"/></mask><g mask="url(#a)" fill-rule="evenodd" clip-rule="evenodd"><path d="M25.832 50.5c-14.025 0-25.5-11.25-25.5-25.125C.46 11.625 11.807.375 25.959.5c14.025.125 25.373 11.25 25.373 25.25-.127 13.625-11.475 24.75-25.5 24.75Z" fill="#fff"/><path d="m28.255 22.5-.765 4 7.267 1-.51 1.875-7.14-1c-.51 1.625-.765 3.375-1.402 4.875-.638 1.75-1.275 3.5-2.04 5.125-1.02 2.125-2.805 3.625-5.228 4-1.402.25-2.933.125-4.08-.75-.382-.25-.765-.75-.765-1.125 0-.5.255-1.125.637-1.375.256-.125.893 0 1.276.125.382.375.764.875 1.02 1.375.765 1 1.785 1.125 2.805.375 1.147-1 1.785-2.375 2.167-3.75.765-3 1.53-5.875 2.168-8.875v-.5l-6.758-1L17.162 25l7.012 1 .893-3.875L17.799 21l.256-2 7.522 1c.255-.75.382-1.375.637-2 .638-2.25 1.276-4.5 2.806-6.5s3.314-3.25 5.992-3.125c1.148 0 2.295.375 3.06 1.25.127.125.383.375.383.625 0 .5 0 1.125-.383 1.5-.51.375-1.148.25-1.658-.25-.382-.375-.637-.75-1.02-1.125-.764-1-1.912-1.125-2.804-.25-.638.625-1.276 1.5-1.658 2.375-.892 2.625-1.53 5.375-2.422 8.125l7.012 1-.51 1.875-6.758-1" fill="#000"/></g></svg>