<svg fill="none" height="893" width="799" xmlns="http://www.w3.org/2000/svg"><path d="m741.916 302.123c31.503 0 57.041-10.397 57.041-23.221s-25.538-23.221-57.041-23.221c-31.502 0-57.04 10.397-57.04 23.221s25.538 23.221 57.04 23.221z" fill="#ffdb00"/><path d="m798.888 248.264h-113.919v30.638h113.919z" fill="#ffdb00"/><path d="m741.916 273.333c31.503 0 57.041-10.396 57.041-23.22 0-12.825-25.538-23.221-57.041-23.221-31.502 0-57.04 10.396-57.04 23.221 0 12.824 25.538 23.22 57.04 23.22z" fill="#ea3f3f"/><path d="m741.916 237.313c31.503 0 57.041-10.396 57.041-23.221 0-12.824-25.538-23.22-57.041-23.22-31.502 0-57.04 10.396-57.04 23.22 0 12.825 25.538 23.221 57.04 23.221z" fill="#0090ff"/><path d="m798.888 183.454h-113.919v30.638h113.919z" fill="#0090ff"/><path d="m741.916 208.524c31.503 0 57.041-10.397 57.041-23.221s-25.538-23.221-57.041-23.221c-31.502 0-57.04 10.397-57.04 23.221s25.538 23.221 57.04 23.221zm11.525 41.473-1.34-3.35-6.812 2.703 2.909-6.747-3.325-1.409-2.887 6.747-2.725-6.816-3.348 1.34 2.725 6.816-6.743-2.911-1.432 3.327 6.743 2.888-6.812 2.726 1.339 3.351 6.812-2.727-2.886 6.747 3.302 1.432 2.887-6.746 2.725 6.816 3.348-1.34-2.725-6.816 6.744 2.888 1.431-3.304-6.743-2.912z" fill="#f9cfdd"/><path d="m585.46 148.012v95.585a17.477 17.477 0 0 0 5.105 12.367 17.463 17.463 0 0 0 12.353 5.124h82.374" stroke="#fff" stroke-miterlimit="10" stroke-width="2"/><path d="m774.293 185.303s-13.463 11.553-30.021 11.553-30.021-11.553-30.021-11.553 13.463-11.552 30.021-11.552 30.021 11.552 30.021 11.552z" fill="#fff"/><path d="m744.226 196.093c5.956 0 10.784-4.831 10.784-10.79s-4.828-10.79-10.784-10.79-10.785 4.831-10.785 10.79 4.829 10.79 10.785 10.79z" fill="#0090ff"/><path d="m744.226 191.749c3.559 0 6.443-2.886 6.443-6.446a6.444 6.444 0 1 0 -12.886 0 6.445 6.445 0 0 0 6.443 6.446z" fill="#1d1d1b"/><path d="m638.136 261.087h-100.733m-92.35-146.023h17.69c3.491 0 6.839 1.387 9.307 3.857a13.173 13.173 0 0 1 3.856 9.313v11.829a12.891 12.891 0 0 0 12.886 12.893h20.183m0 0h-17.689a13.16 13.16 0 0 0 -9.308 3.857 13.177 13.177 0 0 0 -3.855 9.313v11.783c0 3.42-1.358 6.699-3.774 9.117a12.884 12.884 0 0 1 -9.112 3.776h-20.184m-384.549 268.989c-12.747 0-23.093-8.918-23.093-19.916v-57.116m16.212-135.927v99.744m-31.684-99.744v99.744" stroke="#fff" stroke-miterlimit="10" stroke-width="2"/><path d="m70.712 335.764v-46.788h-69.465v46.788a34.77 34.77 0 0 0 10.176 24.58 34.735 34.735 0 0 0 24.568 10.182 34.735 34.735 0 0 0 24.567-10.182 34.77 34.77 0 0 0 10.177-24.58z" fill="#0090ff"/><path d="m35.956 392.764c6.135 0 11.108-4.976 11.108-11.114s-4.973-11.114-11.108-11.114-11.108 4.976-11.108 11.114 4.973 11.114 11.108 11.114z" fill="#ffdb00"/><path d="m0 130.891v48.428h71.89v-48.428c-.407-9.265-4.372-18.016-11.068-24.428a35.969 35.969 0 0 0 -49.754 0 36.007 36.007 0 0 0 -11.068 24.428z" fill="#ea3f3f"/><path d="m35.956 94.916c6.34 0 11.478-5.141 11.478-11.483s-5.139-11.483-11.478-11.483c-6.338 0-11.477 5.14-11.477 11.483s5.139 11.483 11.477 11.483z" fill="#0090ff"/><path d="m76 179.18h-76v71.88h76z" fill="#f9cfdd"/><path d="m120.316 179.157h-48.496v71.903h48.496a35.975 35.975 0 0 0 34.064-22 36.02 36.02 0 0 0 0-27.972 35.992 35.992 0 0 0 -20.018-19.527 35.952 35.952 0 0 0 -14.046-2.473z" fill="#ffdb00"/><path d="m95.86 226.615c6.339 0 11.477-5.141 11.477-11.483s-5.138-11.484-11.477-11.484-11.477 5.142-11.477 11.484 5.138 11.483 11.477 11.483zm-29.097-11.483s-13.856 11.83-30.807 11.83c-16.95 0-30.783-11.83-30.783-11.83s13.787-11.807 30.783-11.807c16.997 0 30.806 11.807 30.806 11.807z" fill="#fff"/><path d="m35.956 226.199c6.11 0 11.062-4.955 11.062-11.068 0-6.112-4.953-11.067-11.062-11.067s-11.062 4.955-11.062 11.067c0 6.113 4.953 11.068 11.062 11.068z" fill="#0090ff"/><path d="m35.956 221.74a6.607 6.607 0 0 0 6.605-6.608 6.606 6.606 0 0 0 -6.605-6.608 6.606 6.606 0 0 0 -6.604 6.608 6.607 6.607 0 0 0 6.604 6.608z" fill="#1d1d1b"/><path d="m71.935 58.965v48.428h71.889v-48.428a35.984 35.984 0 0 0 -10.531-25.438 35.947 35.947 0 0 0 -50.85 0 35.984 35.984 0 0 0 -10.53 25.438z" fill="#f9cfdd"/><path d="m107.892 22.967c6.339 0 11.477-5.142 11.477-11.484s-5.138-11.483-11.477-11.483-11.477 5.141-11.477 11.483 5.138 11.484 11.477 11.484z" fill="#ffdb00"/><path d="m147.935 107.254h-76v71.88h76z" fill="#0090ff"/><path d="m192.251 107.231h-48.496v71.926h48.496c9.536 0 18.682-3.79 25.425-10.536a35.985 35.985 0 0 0 0-50.876 35.946 35.946 0 0 0 -25.425-10.537z" fill="#ea3f3f"/><path d="m87.546 142.074.254.254 8.083 8.063 12.355-12.361-8.083-8.063-.23-.255a8.753 8.753 0 0 0 -14.676 6.25 8.761 8.761 0 0 0 2.298 6.112z" fill="#ffdb00"/><path d="m108.929 137.314-13.064 13.07 12.362 12.368 13.063-13.07z" fill="#f9cfdd"/><path d="m116.528 129.666-.231.254-8.082 8.087 12.355 12.361 8.082-8.087.254-.231a8.756 8.756 0 0 0 0-12.384 8.75 8.75 0 0 0 -12.378 0z" fill="#ea3f3f"/><path d="m96.276 437.957h-24.226v4.736h24.225zm0 9.242h-24.226v4.736h24.225zm-8.776 9.219h-15.45v4.736h15.45z" fill="#ffdb00"/><path d="m348.708 196.393v35.513c0 4.638 1.842 9.087 5.12 12.367a17.48 17.48 0 0 0 12.362 5.123h82.35" stroke="#fff" stroke-miterlimit="10" stroke-width="2"/><path d="m348.708 220.446v35.512c0 4.639 1.842 9.088 5.12 12.368a17.48 17.48 0 0 0 12.362 5.123h82.35" stroke="#fff" stroke-miterlimit="10" stroke-width="2"/><path d="m388.267 221.416c31.502 0 57.04-10.396 57.04-23.221 0-12.824-25.538-23.22-57.04-23.22-31.503 0-57.04 10.396-57.04 23.22 0 12.825 25.537 23.221 57.04 23.221z" fill="#ffdb00"/><path d="m445.215 167.558h-113.919v30.638h113.919z" fill="#ffdb00"/><path d="m388.267 192.627c31.502 0 57.04-10.396 57.04-23.22 0-12.825-25.538-23.221-57.04-23.221-31.503 0-57.04 10.396-57.04 23.221 0 12.824 25.537 23.22 57.04 23.22z" fill="#ea3f3f"/><path d="m388.267 156.606c31.502 0 57.04-10.396 57.04-23.22 0-12.825-25.538-23.221-57.04-23.221-31.503 0-57.04 10.396-57.04 23.221 0 12.824 25.537 23.22 57.04 23.22z" fill="#0090ff"/><path d="m445.215 102.748h-113.919v30.638h113.919z" fill="#0090ff"/><path d="m388.267 127.841c31.502 0 57.04-10.397 57.04-23.221s-25.538-23.22-57.04-23.22c-31.503 0-57.04 10.396-57.04 23.22s25.537 23.221 57.04 23.221z" fill="#f9cfdd"/><path d="m418.311 104.62s-13.463 11.553-30.021 11.553-30.021-11.553-30.021-11.553 13.463-11.552 30.021-11.552 30.021 11.552 30.021 11.552z" fill="#fff"/><path d="m388.267 115.41c5.956 0 10.785-4.831 10.785-10.79s-4.829-10.79-10.785-10.79-10.785 4.831-10.785 10.79 4.829 10.79 10.785 10.79z" fill="#0090ff"/><path d="m388.267 111.066c3.559 0 6.443-2.886 6.443-6.446s-2.884-6.447-6.443-6.447c-3.558 0-6.443 2.887-6.443 6.447s2.885 6.446 6.443 6.446z" fill="#1d1d1b"/><path d="m399.79 169.291-1.34-3.35-6.812 2.726 2.887-6.746-3.303-1.433-2.909 6.747-2.725-6.816-3.349 1.34 2.725 6.816-6.743-2.911-1.409 3.327 6.743 2.888-6.835 2.726 1.339 3.351 6.836-2.727-2.91 6.747 3.325 1.433 2.887-6.747 2.725 6.816 3.349-1.34-2.725-6.816 6.743 2.888 1.432-3.304-6.767-2.911z" fill="#f9cfdd"/><path d="m229.686 140.942h21.292a15.824 15.824 0 0 1 6.074 1.202 15.821 15.821 0 0 1 5.151 3.44 15.855 15.855 0 0 1 4.64 11.231v14.256a15.532 15.532 0 0 0 9.596 14.351 15.504 15.504 0 0 0 5.945 1.175h24.318" stroke="#fff" stroke-miterlimit="10" stroke-width="2"/><path d="m313.768 194.083c4.082 0 7.39-3.31 7.39-7.393a7.391 7.391 0 0 0 -7.39-7.394 7.392 7.392 0 0 0 -7.39 7.394 7.392 7.392 0 0 0 7.39 7.393z" stroke="#fff" stroke-miterlimit="10" stroke-width="2"/><path d="m491.078 223.657h-48.404v71.903h48.496c9.382-.238 18.299-4.133 24.85-10.856a36.01 36.01 0 0 0 0-50.26 35.973 35.973 0 0 0 -24.85-10.856z" fill="#ea3f3f"/><path d="m538.535 271.138c6.339 0 11.477-5.141 11.477-11.483s-5.138-11.483-11.477-11.483-11.477 5.141-11.477 11.483 5.138 11.483 11.477 11.483z" fill="#0090ff"/><path d="m193.729 140.271-1.316-3.35-6.836 2.726 2.91-6.746-3.325-1.433-2.887 6.77-2.725-6.839-3.349 1.34 2.725 6.816-6.743-2.888-1.432 3.304 6.744 2.911-6.813 2.727 1.34 3.35 6.812-2.727-2.887 6.747 3.303 1.409 2.909-6.746 2.725 6.839 3.349-1.34-2.725-6.816 6.743 2.888 1.409-3.327-6.743-2.888zm-146.203 173.958a4.61 4.61 0 0 0 -3.441-1.478 6.922 6.922 0 0 0 -6.166 3.304 18.223 18.223 0 0 0 -2.563 5.892l-.116.415-.323 1.156-6.928-.994-.462 3.581 6.535 1.017-.438 1.895-6.42-.924-.462 3.558 6.166.924-.393 1.733c-.485 2.01-.947 4.043-1.478 6.053a5.566 5.566 0 0 1 -1.709 3.05c-.182.17-.42.268-.67.277a1.177 1.177 0 0 1 -.577-.415l-.208-.324a3.797 3.797 0 0 0 -.946-1.109 2.055 2.055 0 0 0 -2.31-.162 2.618 2.618 0 0 0 -.854 2.01 2.702 2.702 0 0 0 1.062 1.733c.9.673 1.995 1.03 3.118 1.017.45-.003.898-.049 1.34-.139a7.513 7.513 0 0 0 5.357-4.343 37.254 37.254 0 0 0 1.916-4.922c.347-1.063.6-2.126.878-3.211l.162-.624 6.466.924 1.016-3.535-6.72-.994.392-1.894 6.12.855.993-3.512-6.397-.948.347-1.247c.485-1.826.97-3.582 1.547-5.315.274-.7.7-1.332 1.247-1.848a.743.743 0 0 1 .508-.231.857.857 0 0 1 .647.416l.161.231c.238.348.51.673.808.97a1.938 1.938 0 0 0 2.725.231 2.597 2.597 0 0 0 .578-1.94 1.735 1.735 0 0 0 -.508-1.133z" fill="#fff"/><path d="m183.199 446.344c-1.247-4.621-5.45-8.295-12.471-10.859l-3.279-1.109v26.524a16.172 16.172 0 0 0 -8.545 3.189c-5.126 3.604-7.667 8.826-5.681 11.552 1.987 2.727 7.737 2.172 12.84-1.432 4.273-3.027 6.744-7.163 6.282-10.074v-22.597a10.858 10.858 0 0 1 6.119 6.1 9.103 9.103 0 0 1 -1.847 7.232l3.787 3.142a14.113 14.113 0 0 0 2.795-11.668z" fill="#c999ad"/><path d="m499.992 250.182c-1.247-4.621-5.45-8.318-12.47-10.883l-3.28-1.201v26.547a15.907 15.907 0 0 0 -8.544 3.189c-5.127 3.604-7.667 8.803-5.681 11.552 1.986 2.75 7.736 2.149 12.84-1.455 4.272-3.027 6.743-7.14 6.281-10.051v-22.62a10.916 10.916 0 0 1 6.12 6.1 9.248 9.248 0 0 1 -1.848 7.255l3.788 3.119a14.008 14.008 0 0 0 2.794-11.552z" fill="#ffdb00"/><g stroke="#fff" stroke-miterlimit="10" stroke-width="2"><path d="m483.572 503.691h21.292a15.807 15.807 0 0 1 6.075 1.202 15.842 15.842 0 0 1 9.79 14.671v14.256c0 4.124 1.638 8.079 4.552 10.995a15.54 15.54 0 0 0 10.99 4.554h24.317m-325.268-93.459h74.961c4.159 0 8.147 1.652 11.088 4.595a15.693 15.693 0 0 1 4.592 11.093v68.044a15.352 15.352 0 0 0 4.5 10.857 15.332 15.332 0 0 0 10.857 4.485h24.017"/><path d="m371.894 562.286a7.3 7.3 0 0 0 7.297-7.302 7.3 7.3 0 0 0 -7.297-7.301 7.3 7.3 0 0 0 -7.298 7.301 7.3 7.3 0 0 0 7.298 7.302zm0-25.855a7.3 7.3 0 0 0 7.297-7.302 7.3 7.3 0 0 0 -7.297-7.301 7.3 7.3 0 0 0 -7.298 7.301 7.3 7.3 0 0 0 7.298 7.302zm-44.617-7.971h37.758m6.859-19.455c4.03 0 7.297-3.269 7.297-7.301s-3.267-7.301-7.297-7.301c-4.031 0-7.298 3.269-7.298 7.301s3.267 7.301 7.298 7.301zm-44.617-7.994h37.758m-116.529-45.102h21.061c8.66 0 15.681-6.261 15.681-14.025v-63.377c0-7.578 6.928-13.724 15.357-13.724h38.866"/></g><path d="m442.721 593.154c29.653 0 53.691-9.786 53.691-21.857 0-12.072-24.038-21.858-53.691-21.858-29.654 0-53.692 9.786-53.692 21.858 0 12.071 24.038 21.857 53.692 21.857z" fill="#ffdb00"/><path d="m496.32 542.461h-107.199v28.835h107.199z" fill="#ffdb00"/><path d="m442.721 566.051c29.653 0 53.691-9.785 53.691-21.857s-24.038-21.857-53.691-21.857c-29.654 0-53.692 9.785-53.692 21.857s24.038 21.857 53.692 21.857z" fill="#ea3f3f"/><path d="m442.721 539.457c29.653 0 53.691-9.786 53.691-21.857 0-12.072-24.038-21.858-53.691-21.858-29.654 0-53.692 9.786-53.692 21.858 0 12.071 24.038 21.857 53.692 21.857z" fill="#f9cfdd"/><path d="m496.32 488.764h-107.199v28.836h107.199z" fill="#f9cfdd"/><path d="m442.721 512.378c29.653 0 53.691-9.786 53.691-21.857 0-12.072-24.038-21.857-53.691-21.857-29.654 0-53.692 9.785-53.692 21.857 0 12.071 24.038 21.857 53.692 21.857z" fill="#0090ff"/><path d="m457.846 480.933c-1.247-2.427-5.45-4.344-12.47-5.661l-3.279-.624v13.863c-2.92.086-5.806.647-8.545 1.664-5.126 1.894-7.667 4.621-5.681 6.053 1.986 1.433 7.737 1.132 12.84-.762 4.273-1.572 6.743-3.72 6.282-5.222v-11.761c3.394.878 5.473 1.964 6.119 3.166 1.016 1.918-1.824 3.743-1.847 3.766l3.787 1.64c.162-.184 4.503-2.934 2.794-6.122z" fill="#fff"/><path d="m386.304 381.558h77.455a22.235 22.235 0 0 0 15.725-6.517 22.257 22.257 0 0 0 6.514-15.734v-9.427m55.47 0h-155.164" stroke="#fff" stroke-miterlimit="10" stroke-width="2"/><path d="m395.657 400.135h46.764v-69.5h-46.764a34.747 34.747 0 0 0 -24.576 10.184 34.784 34.784 0 0 0 0 49.177 34.748 34.748 0 0 0 24.576 10.185z" fill="#0090ff"/><path d="m349.793 376.475c6.135 0 11.108-4.976 11.108-11.114s-4.973-11.113-11.108-11.113c-6.134 0-11.107 4.975-11.107 11.113s4.973 11.114 11.107 11.114zm260.631-45.679h-71.843v76.039h71.843z" fill="#ffdb00"/><path d="m610.47 451.196v-48.428h-71.889v48.428a36.004 36.004 0 0 0 10.85 24.863 35.97 35.97 0 0 0 50.234 0 36.005 36.005 0 0 0 10.851-24.863z" fill="#0090ff"/><path d="m583.612 197.387c42.892 0 77.663-14.151 77.663-31.608 0-17.456-34.771-31.608-77.663-31.608s-77.662 14.152-77.662 31.608c0 17.457 34.77 31.608 77.662 31.608z" fill="#ffdb00"/><path d="m661.206 124.074h-155.071v41.705h155.071z" fill="#ffdb00"/><path d="m583.612 158.224c42.892 0 77.663-14.152 77.663-31.608s-34.771-31.608-77.663-31.608-77.662 14.152-77.662 31.608 34.77 31.608 77.662 31.608z" fill="#f9cfdd"/><path d="m604.535 113.608h-41.707v26.455h41.707z" fill="#fff"/><path d="m559.411 113.608h-6.235v5.592h6.235zm0 10.421h-6.235v5.591h6.235zm0 10.42h-6.235v5.591h6.235zm54.615-20.841h-6.235v5.592h6.235zm0 10.421h-6.235v5.591h6.235zm0 10.42h-6.235v5.591h6.235z" fill="#0068ec"/><path d="m588.162 126.824-9.699-3.535v7.093z" fill="#ea3f3f"/><path d="m209.41 308.823a53.626 53.626 0 0 1 35.54 13.401 48.534 48.534 0 0 0 0-66.45 54.071 54.071 0 0 1 -35.586 13.364 54.072 54.072 0 0 1 -35.587-13.364 48.692 48.692 0 0 0 -13.051 33.178 48.693 48.693 0 0 0 13.051 33.179 53.719 53.719 0 0 1 35.633-13.308z" fill="#0090ff"/><path d="m280.745 337.635c26.86 0 48.634-21.785 48.634-48.659s-21.774-48.659-48.634-48.659-48.635 21.785-48.635 48.659 21.775 48.659 48.635 48.659z" fill="#f9cfdd"/><path d="m316.378 255.866a48.649 48.649 0 0 0 -13.003 33.109 48.65 48.65 0 0 0 13.003 33.11 48.654 48.654 0 0 0 0-66.219z" fill="#ea3f3f"/><path d="m245.089 255.866a48.65 48.65 0 0 0 0 66.219 48.654 48.654 0 0 0 0-66.219z" fill="#fff"/><path d="m173.777 255.866a48.717 48.717 0 0 0 -12.978 33.109 48.718 48.718 0 0 0 12.978 33.11 48.65 48.65 0 0 0 13.003-33.11 48.649 48.649 0 0 0 -13.003-33.109z" fill="#ffdb00"/><path d="m245.089 300.297c6.249 0 11.315-5.069 11.315-11.322s-5.066-11.321-11.315-11.321c-6.25 0-11.316 5.068-11.316 11.321s5.066 11.322 11.316 11.322z" fill="#0090ff"/><path d="m245.089 295.745c3.737 0 6.766-3.031 6.766-6.77s-3.029-6.77-6.766-6.77-6.767 3.031-6.767 6.77 3.03 6.77 6.767 6.77z" fill="#1d1d1b"/><path d="m98.077 252.585v18.947c0 5.554 2.204 10.88 6.127 14.81a20.942 20.942 0 0 0 14.796 6.146h43.346" stroke="#fff" stroke-miterlimit="10" stroke-width="2"/><path d="m579.756 346.322h-24.225v4.737h24.225zm0 9.22h-24.225v4.736h24.225zm-8.776 9.241h-15.449v4.736h15.449z" fill="#1d1d1b"/><path d="m421.383 351.544h-33.255v26.455h33.255z" fill="#fff"/><path d="m385.38 351.544h-4.965v5.591h4.965zm0 10.42h-4.965v5.592h4.965zm0 10.444h-4.965v5.591h4.965zm43.577-20.864h-4.965v5.591h4.965zm0 10.42h-4.965v5.592h4.965zm0 10.444h-4.965v5.591h4.965z" fill="#0068ec"/><path d="m408.311 364.783-7.736-3.558v7.093z" fill="#ea3f3f"/><path d="m586.568 431.603a4.62 4.62 0 0 0 -3.44-1.502 6.924 6.924 0 0 0 -6.166 3.305 18.66 18.66 0 0 0 -2.564 5.891l-.115.439c-.116.37-.208.763-.323 1.156l-6.928-.994-.462 3.581 6.535.994-.439 1.894-6.443-.901-.462 3.559 6.166.947-.392 1.71c-.485 2.033-.947 4.066-1.478 6.076a5.6 5.6 0 0 1 -1.709 3.027.93.93 0 0 1 -.67.277.943.943 0 0 1 -.577-.416l-.208-.323a3.779 3.779 0 0 0 -.947-1.109 2.1 2.1 0 0 0 -2.309-.139 2.308 2.308 0 0 0 -.531 2.941c.182.314.435.581.739.779a4.963 4.963 0 0 0 3.117 1.04c.45-.003.899-.049 1.34-.139a7.531 7.531 0 0 0 5.38-4.274 36.001 36.001 0 0 0 1.917-4.922c.347-1.039.601-2.125.878-3.211l.161-.624 6.466.947 1.017-3.535-6.721-.993.393-1.918 6.12.855.993-3.512-6.397-.947.346-1.248c.485-1.802.97-3.558 1.548-5.291a4.89 4.89 0 0 1 1.247-1.849.666.666 0 0 1 .508-.254.92.92 0 0 1 .646.416l.162.231c.244.351.514.684.808.994a1.94 1.94 0 0 0 2.725.208 2.542 2.542 0 0 0 .578-1.941 1.654 1.654 0 0 0 -.509-1.225z" fill="#fff"/><path d="m585.298 711.844v99.722m-31.684-99.722v99.722" stroke="#fff" stroke-miterlimit="10" stroke-width="2"/><path d="m602.387 800.776v-46.788h-69.464v46.857a34.787 34.787 0 0 0 10.179 24.589 34.749 34.749 0 0 0 49.152 0 34.784 34.784 0 0 0 10.18-24.589z" fill="#0090ff"/><path d="m567.632 857.753c6.135 0 11.108-4.976 11.108-11.114 0-6.137-4.973-11.113-11.108-11.113-6.134 0-11.108 4.976-11.108 11.113 0 6.138 4.974 11.114 11.108 11.114z" fill="#ffdb00"/><path d="m603.588 523.977v48.428h71.889v-48.428a36.006 36.006 0 0 0 -10.85-24.863 35.97 35.97 0 0 0 -50.234 0 36.007 36.007 0 0 0 -10.851 24.863z" fill="#0090ff"/><path d="m639.544 487.979c6.339 0 11.478-5.141 11.478-11.483s-5.139-11.483-11.478-11.483-11.477 5.141-11.477 11.483 5.138 11.483 11.477 11.483z" fill="#ffdb00"/><path d="m679.588 572.266h-76v71.88h76z" fill="#f9cfdd"/><path d="m723.927 572.243h-48.496v71.926h48.496c9.536 0 18.682-3.79 25.425-10.537a35.983 35.983 0 0 0 0-50.875 35.946 35.946 0 0 0 -25.425-10.537z" fill="#ea3f3f"/><path d="m619.222 607.086c.073.089.159.167.254.231l8.06 8.087 12.355-12.361-8.06-8.064-.254-.277a8.75 8.75 0 0 0 -12.108.27 8.759 8.759 0 0 0 -.247 12.114z" fill="#ffdb00"/><path d="m640.587 602.331-13.064 13.071 12.362 12.367 13.063-13.07z" fill="#ea3f3f"/><path d="m648.204 594.679-.254.254-8.059 8.087 12.355 12.361 8.059-8.087.254-.231a8.756 8.756 0 0 0 -.247-12.115 8.749 8.749 0 0 0 -12.108-.269z" fill="#0090ff"/><path d="m725.404 605.284-1.339-3.35-6.812 2.726 2.886-6.747-3.302-1.432-2.91 6.746-2.702-6.816-3.348 1.341 2.702 6.816-6.744-2.889-1.408 3.304 6.743 2.912-6.813 2.703 1.34 3.35 6.812-2.703-2.909 6.747 3.325 1.409 2.887-6.747 2.725 6.816 3.348-1.317-2.725-6.839 6.743 2.912 1.432-3.328-6.743-2.888zm-55.7-61.09s-13.856 11.83-30.783 11.83c-16.928 0-30.807-11.83-30.807-11.83s13.856-11.807 30.807-11.807c16.95 0 30.783 11.807 30.783 11.807z" fill="#fff"/><path d="m639.013 555.261c6.109 0 11.062-4.955 11.062-11.067s-4.953-11.067-11.062-11.067-11.061 4.955-11.061 11.067 4.952 11.067 11.061 11.067z" fill="#0090ff"/><path d="m639.013 550.802a6.607 6.607 0 0 0 6.605-6.608 6.606 6.606 0 0 0 -6.605-6.608 6.606 6.606 0 0 0 -6.604 6.608 6.607 6.607 0 0 0 6.604 6.608z" fill="#1d1d1b"/><path d="m250.492 742.967h-39.258c-10.969 0-17.99-6.285-17.99-14.025v-61.067c0-7.578-6.928-13.747-15.357-13.747h-31.938m250.955 90.849h21.084c8.66 0 15.68-6.284 15.68-14.025v-33.34c0-7.579 6.928-13.748 15.357-13.748h85.145" stroke="#fff" stroke-miterlimit="10" stroke-width="2"/><path d="m531.653 595.903v48.428h71.866v-48.428a36.011 36.011 0 0 0 -10.851-24.863 35.97 35.97 0 0 0 -50.234 0 36.011 36.011 0 0 0 -10.851 24.863z" fill="#ea3f3f"/><path d="m567.632 559.905c6.338 0 11.477-5.141 11.477-11.483s-5.139-11.483-11.477-11.483c-6.339 0-11.478 5.141-11.478 11.483s5.139 11.483 11.478 11.483zm40.021 84.288h-76v71.88h76z" fill="#0090ff"/><path d="m651.992 644.169h-48.496v71.903h48.496c9.536 0 18.682-3.79 25.425-10.536a35.985 35.985 0 0 0 0-50.876 35.946 35.946 0 0 0 -25.425-10.537z" fill="#ffdb00"/><path d="m627.513 691.628c6.339 0 11.477-5.142 11.477-11.484s-5.138-11.483-11.477-11.483-11.477 5.141-11.477 11.483 5.138 11.484 11.477 11.484z" fill="#fff"/><path d="m285.779 602.349v-132.715c0-7.579-6.928-13.724-15.334-13.724h-38.959" stroke="#fff" stroke-miterlimit="10" stroke-width="2"/><path d="m178.811 419.843h-48.38v71.88h48.38a35.97 35.97 0 0 0 26.028-10.212 35.998 35.998 0 0 0 10.863-25.774 36.008 36.008 0 0 0 -10.863-25.775 35.978 35.978 0 0 0 -26.028-10.212z" fill="#f9cfdd"/><path d="m226.267 467.3c6.339 0 11.478-5.141 11.478-11.483s-5.139-11.483-11.478-11.483c-6.338 0-11.477 5.141-11.477 11.483s5.139 11.483 11.477 11.483z" fill="#ea3f3f"/><path d="m130.546 419.843h-71.843v76.038h71.843z" fill="#0090ff"/><path d="m130.592 540.243v-48.428h-71.889v48.428a36.004 36.004 0 0 0 10.851 24.862 35.969 35.969 0 0 0 25.117 10.224 35.971 35.971 0 0 0 25.117-10.224 36.007 36.007 0 0 0 10.851-24.862z" fill="#ea3f3f"/><path d="m98.077 552.535 4.342-1.733-3.534-8.849 8.73 3.766 1.847-4.298-8.729-3.743 8.821-3.535-1.732-4.343-8.821 3.535 3.741-8.757-4.296-1.825-3.74 8.733-3.534-8.826-4.341 1.733 3.533 8.826-8.73-3.743-1.847 4.275 8.73 3.766-8.822 3.512 1.732 4.343 8.821-3.512-3.74 8.734 4.295 1.849 3.74-8.757z" fill="#fff"/><path d="m249.638 657.571v48.428h71.843v-48.428a36.008 36.008 0 0 0 -10.206-26.042 35.978 35.978 0 0 0 -25.762-10.868 35.969 35.969 0 0 0 -25.761 10.868 36.008 36.008 0 0 0 -10.206 26.042z" fill="#ffdb00"/><path d="m285.617 621.573c6.339 0 11.478-5.142 11.478-11.484s-5.139-11.483-11.478-11.483c-6.338 0-11.477 5.141-11.477 11.483s5.139 11.484 11.477 11.484z" fill="#f9cfdd"/><path d="m321.574 705.86h-71.936v71.88h71.936z" fill="#0090ff"/><path d="m369.977 705.814h-48.404v71.88h48.404a35.973 35.973 0 0 0 24.85-10.857 36.006 36.006 0 0 0 0-50.259 35.968 35.968 0 0 0 -24.85-10.856z" fill="#ea3f3f"/><path d="m289.058 683.887 4.342-1.733-3.534-8.849 8.753 3.766 1.824-4.297-8.729-3.766 8.821-3.512-1.732-4.344-8.821 3.535 3.741-8.757-4.272-1.825-3.765 8.733-3.51-8.826-4.341 1.71 3.51 8.849-8.729-3.766-1.848 4.298 8.753 3.766-8.845 3.512 1.732 4.344 8.821-3.535-3.741 8.756 4.296 1.826 3.741-8.734zm13.232 45.864h-33.254v26.455h33.254z" fill="#fff"/><path d="m266.311 729.751h-4.965v5.591h4.965zm0 10.42h-4.965v5.591h4.965zm0 10.421h-4.965v5.591h4.965zm43.554-20.841h-4.965v5.591h4.965zm0 10.42h-4.965v5.591h4.965zm0 10.421h-4.965v5.591h4.965z" fill="#0068ec"/><path d="m289.243 742.967-7.737-3.535v7.093z" fill="#ea3f3f"/><path d="m285.779 778.063v44.478c0 5.558 2.207 10.888 6.135 14.818s9.255 6.138 14.81 6.138h43.346" stroke="#fff" stroke-miterlimit="10" stroke-width="2"/><path d="m393.971 863.229a53.744 53.744 0 0 1 35.564 13.378 48.538 48.538 0 0 0 0-66.45 54.024 54.024 0 0 1 -71.174 0c-8.416 8.991-13.099 20.848-13.099 33.167s4.683 24.176 13.099 33.167a53.698 53.698 0 0 1 35.61-13.262z" fill="#f9cfdd"/><path d="m465.306 892.041c26.86 0 48.634-21.786 48.634-48.66s-21.774-48.659-48.634-48.659-48.635 21.785-48.635 48.659 21.775 48.66 48.635 48.66z" fill="#ffdb00"/><path d="m500.939 810.272c-8.342 9.001-12.976 20.823-12.976 33.098s4.634 24.096 12.976 33.098c8.376-8.984 13.034-20.812 13.034-33.098s-4.658-24.114-13.034-33.098z" fill="#ea3f3f"/><path d="m429.65 810.272a48.537 48.537 0 0 0 0 66.196 48.537 48.537 0 0 0 0-66.196z" fill="#fff"/><path d="m358.361 810.272c-8.377 8.984-13.035 20.812-13.035 33.098s4.658 24.114 13.035 33.098a48.697 48.697 0 0 0 0-66.196zm71.289 44.431c6.25 0 11.316-5.069 11.316-11.321 0-6.253-5.066-11.322-11.316-11.322-6.249 0-11.316 5.069-11.316 11.322 0 6.252 5.067 11.321 11.316 11.321z" fill="#0090ff"/><path d="m429.65 850.151a6.768 6.768 0 0 0 6.766-6.77 6.768 6.768 0 1 0 -13.533 0c0 3.739 3.03 6.77 6.767 6.77z" fill="#1d1d1b"/><path d="m658.689 330.796h-48.404v71.903h48.496a35.971 35.971 0 0 0 24.85-10.857 36.006 36.006 0 0 0 0-50.259 35.971 35.971 0 0 0 -24.85-10.857z" fill="#f9cfdd"/><path d="m706.145 378.277c6.339 0 11.478-5.141 11.478-11.483s-5.139-11.484-11.478-11.484c-6.338 0-11.477 5.142-11.477 11.484s5.139 11.483 11.477 11.483zm-615.735 321.437c42.892 0 77.663-14.151 77.663-31.608 0-17.456-34.771-31.607-77.663-31.607s-77.662 14.151-77.662 31.607c0 17.457 34.77 31.608 77.662 31.608z" fill="#ffdb00"/><path d="m168.003 626.402h-155.07v41.704h155.07z" fill="#ffdb00"/><path d="m90.41 660.551c42.892 0 77.663-14.151 77.663-31.608 0-17.456-34.771-31.607-77.663-31.607s-77.662 14.151-77.662 31.607c0 17.457 34.77 31.608 77.662 31.608z" fill="#0090ff"/><path d="m111.471 613.994a13.844 13.844 0 0 0 -6.282-1.34 18.738 18.738 0 0 0 -11.223 2.981 14.758 14.758 0 0 0 -4.618 5.291l-.231.369c-.208.347-.393.694-.578 1.04l-12.609-.809-.854 3.212 11.916.924-.808 1.687-11.732-.809-.831 3.189 11.223.855-.739 1.548c-.831 1.825-1.686 3.627-2.655 5.452a5.982 5.982 0 0 1 -3.118 2.727 2.878 2.878 0 0 1 -1.2.231 2.052 2.052 0 0 1 -1.063-.37l-.37-.277a5.72 5.72 0 0 0 -1.732-.994 7.06 7.06 0 0 0 -4.11-.138c-.993.393-1.64 1.155-1.547 1.802.092.647 1.039 1.201 1.916 1.548a16.16 16.16 0 0 0 5.658.901c.818.006 1.635-.032 2.448-.115a15.904 15.904 0 0 0 9.792-3.813 27.864 27.864 0 0 0 3.487-4.436 29.249 29.249 0 0 0 1.616-2.865l.277-.578 11.755.832 1.87-3.165-12.24-.878.717-1.733 11.154.786 1.778-3.212-11.547-.832.647-1.132c.9-1.617 1.778-3.212 2.794-4.76a6.927 6.927 0 0 1 2.31-1.663 2 2 0 0 1 .946-.208c.419.014.826.142 1.178.37l.277.207c.47.33.964.624 1.478.878a6.317 6.317 0 0 0 4.965.208c.337-.147.62-.394.81-.709.19-.314.278-.68.253-1.047-.047-.554-.716-.901-1.178-1.155zm467.731 50.496a4.623 4.623 0 0 0 -3.464-1.479 6.92 6.92 0 0 0 -3.53.817 6.922 6.922 0 0 0 -2.636 2.487 18.695 18.695 0 0 0 -2.54 5.892v.416c-.116.37-.231.763-.324 1.155l-6.928-.993-.461 3.581 6.535.994-.439 1.894-6.443-.901-.462 3.558 6.166.948-.392 1.733c-.462 2.01-.924 4.043-1.455 6.053a5.713 5.713 0 0 1 -1.709 3.05 1.13 1.13 0 0 1 -.67.277.925.925 0 0 1 -.332-.162.929.929 0 0 1 -.245-.277l-.208-.3a4.232 4.232 0 0 0 -.947-1.109 2.055 2.055 0 0 0 -2.309-.162 2.614 2.614 0 0 0 -.855 2.01 2.706 2.706 0 0 0 1.063 1.733 4.983 4.983 0 0 0 3.094 1.017 7.464 7.464 0 0 0 6.72-4.39 38.54 38.54 0 0 0 1.917-4.922c.346-1.062.624-2.125.901-3.211l.161-.647 6.443.947 1.016-3.535-6.697-.993.37-1.918 6.12.878.993-3.512-6.397-.947.346-1.271c.508-1.803.993-3.558 1.547-5.291a5.222 5.222 0 0 1 1.247-1.849.73.73 0 0 1 .532-.254c.262.061.493.218.646.439l.162.208c.244.351.514.683.808.994a1.94 1.94 0 0 0 2.725.231c.44-.555.647-1.26.577-1.964a1.75 1.75 0 0 0 -.646-1.225z" fill="#fff"/></svg>